<?xml version="1.0" standalone="no"?><!DOCTYPE svg PUBLIC "-//W3C//DTD SVG 1.1//EN" "http://www.w3.org/Graphics/SVG/1.1/DTD/svg11.dtd"><svg class="icon" height="512" viewBox="0 0 1024 1024" version="1.1" xmlns="http://www.w3.org/2000/svg"><path d="M510.544347 958.685435c-247.095701 0-448.158996-201.035666-448.158996-448.161043 0-247.12333 201.062272-448.16002 448.158996-448.16002 247.103888 0 448.161043 201.036689 448.161043 448.16002C958.70539 757.649769 757.648234 958.685435 510.544347 958.685435L510.544347 958.685435zM510.544347 123.893728c-213.2038 0-386.630664 173.426865-386.630664 386.631688 0 112.052029 48.193629 212.805734 124.605949 283.482423 0.019443-0.112564-0.046049-0.226151-0.046049-0.313132C267.122315 665.209404 358.95586 640.081097 511.245312 640.081097c151.969157 0 243.643066 25.107841 262.562974 152.801105 75.692936-70.603011 123.369795-170.889065 123.369795-282.357809C897.177058 297.319569 723.756333 123.893728 510.544347 123.893728L510.544347 123.893728zM511.245312 527.604396c-80.896448 0-146.484236-65.560158-146.484236-146.482189 0-80.890308 65.587787-146.475026 146.484236-146.475026 80.893378 0 146.475026 65.584718 146.475026 146.475026C657.719314 462.044238 592.137667 527.604396 511.245312 527.604396L511.245312 527.604396zM511.245312 527.604396" /></svg>